mtllib model.mtl
o Default
v 1.75 1.5 0
v 1.75 2 -1.5
v 1.75 2 -0.5
v 1.75 1.5 -1.5
v 1.75 1.5 -1.5
v 1.75 0.5 -0.5
v 1.75 0.5 -1.5
v 1.75 1.5 -0.5
v 1.75 0 -0.5
v 1.75 1.5 0
v 1.75 0.5 0
v 1.75 1.5 -0.5
v 1.75 0.5 -2
v 1.75 0 -0.5
v 1.75 0 -1.5
v 1.75 0.5 -0.5
v 1.75 2 -1.5
v 1.75 0.5 -2
v 1.75 1.5 -2
v 1.75 0.5 -1.5
v 1.25 0 -1.5
v 1.25 1.5 -2
v 1.25 0.5 -2
v 1.25 1.5 -1.5
v 1.25 0.5 0
v 1.25 0 -1.5
v 1.25 0 -0.5
v 1.25 0.5 -1.5
v 1.25 2 -0.5
v 1.25 0.5 0
v 1.25 1.5 0
v 1.25 0.5 -0.5
v 1.25 1.5 -2
v 1.25 2 -0.5
v 1.25 2 -1.5
v 1.25 1.5 -0.5
v 1.25 2 -1.5
v 1.75 1.5 -2
v 1.25 1.5 -2
v 1.75 2 -1.5
v 1.25 0.5 -2
v 1.75 0 -1.5
v 1.25 0 -1.5
v 1.75 0.5 -2
v 1.25 0 -0.5
v 1.75 0.5 0
v 1.25 0.5 0
v 1.75 0 -0.5
v 1.25 1.5 -2
v 1.75 0.5 -2
v 1.25 0.5 -2
v 1.75 1.5 -2
v 1.25 0 -1.5
v 1.75 0 -0.5
v 1.25 0 -0.5
v 1.75 0 -1.5
v 1.25 0.5 0
v 1.75 1.5 0
v 1.25 1.5 0
v 1.75 0.5 0
v 1.25 1.5 0
v 1.75 2 -0.5
v 1.25 2 -0.5
v 1.75 1.5 0
v 1.25 2 -0.5
v 1.75 2 -1.5
v 1.25 2 -1.5
v 1.75 2 -0.5
v 1.25 0.5 -1.5
v 1.25 1.5 -0.5
v 1.25 1.5 -1.5
v 1.25 0.5 -0.5
v -1.25 1.5 0
v -1.25 2 -1.5
v -1.25 2 -0.5
v -1.25 1.5 -1.5
v -1.25 1.5 -1.5
v -1.25 0.5 -0.5
v -1.25 0.5 -1.5
v -1.25 1.5 -0.5
v -1.25 0 -0.5
v -1.25 1.5 0
v -1.25 0.5 0
v -1.25 1.5 -0.5
v -1.25 0.5 -2
v -1.25 0 -0.5
v -1.25 0 -1.5
v -1.25 0.5 -0.5
v -1.25 2 -1.5
v -1.25 0.5 -2
v -1.25 1.5 -2
v -1.25 0.5 -1.5
v -1.75 0 -1.5
v -1.75 1.5 -2
v -1.75 0.5 -2
v -1.75 1.5 -1.5
v -1.75 0.5 0
v -1.75 0 -1.5
v -1.75 0 -0.5
v -1.75 0.5 -1.5
v -1.75 2 -0.5
v -1.75 0.5 0
v -1.75 1.5 0
v -1.75 0.5 -0.5
v -1.75 1.5 -2
v -1.75 2 -0.5
v -1.75 2 -1.5
v -1.75 1.5 -0.5
v -1.75 2 -1.5
v -1.25 1.5 -2
v -1.75 1.5 -2
v -1.25 2 -1.5
v -1.75 0.5 -2
v -1.25 0 -1.5
v -1.75 0 -1.5
v -1.25 0.5 -2
v -1.75 0 -0.5
v -1.25 0.5 0
v -1.75 0.5 0
v -1.25 0 -0.5
v -1.75 1.5 -2
v -1.25 0.5 -2
v -1.75 0.5 -2
v -1.25 1.5 -2
v -1.75 0 -1.5
v -1.25 0 -0.5
v -1.75 0 -0.5
v -1.25 0 -1.5
v -1.75 0.5 0
v -1.25 1.5 0
v -1.75 1.5 0
v -1.25 0.5 0
v -1.75 1.5 0
v -1.25 2 -0.5
v -1.75 2 -0.5
v -1.25 1.5 0
v -1.75 2 -0.5
v -1.25 2 -1.5
v -1.75 2 -1.5
v -1.25 2 -0.5
v -1.75 0.5 -1.5
v -1.75 1.5 -0.5
v -1.75 1.5 -1.5
v -1.75 0.5 -0.5
v 1.75 1.5 -2.75
v 1.75 2 -4.25
v 1.75 2 -3.25
v 1.75 1.5 -4.25
v 1.75 1.5 -4.25
v 1.75 0.5 -3.25
v 1.75 0.5 -4.25
v 1.75 1.5 -3.25
v 1.75 0 -3.25
v 1.75 1.5 -2.75
v 1.75 0.5 -2.75
v 1.75 1.5 -3.25
v 1.75 0.5 -4.75
v 1.75 0 -3.25
v 1.75 0 -4.25
v 1.75 0.5 -3.25
v 1.75 2 -4.25
v 1.75 0.5 -4.75
v 1.75 1.5 -4.75
v 1.75 0.5 -4.25
v 1.25 0 -4.25
v 1.25 1.5 -4.75
v 1.25 0.5 -4.75
v 1.25 1.5 -4.25
v 1.25 0.5 -2.75
v 1.25 0 -4.25
v 1.25 0 -3.25
v 1.25 0.5 -4.25
v 1.25 2 -3.25
v 1.25 0.5 -2.75
v 1.25 1.5 -2.75
v 1.25 0.5 -3.25
v 1.25 1.5 -4.75
v 1.25 2 -3.25
v 1.25 2 -4.25
v 1.25 1.5 -3.25
v 1.25 2 -4.25
v 1.75 1.5 -4.75
v 1.25 1.5 -4.75
v 1.75 2 -4.25
v 1.25 0.5 -4.75
v 1.75 0 -4.25
v 1.25 0 -4.25
v 1.75 0.5 -4.75
v 1.25 0 -3.25
v 1.75 0.5 -2.75
v 1.25 0.5 -2.75
v 1.75 0 -3.25
v 1.25 1.5 -4.75
v 1.75 0.5 -4.75
v 1.25 0.5 -4.75
v 1.75 1.5 -4.75
v 1.25 0 -4.25
v 1.75 0 -3.25
v 1.25 0 -3.25
v 1.75 0 -4.25
v 1.25 0.5 -2.75
v 1.75 1.5 -2.75
v 1.25 1.5 -2.75
v 1.75 0.5 -2.75
v 1.25 1.5 -2.75
v 1.75 2 -3.25
v 1.25 2 -3.25
v 1.75 1.5 -2.75
v 1.25 2 -3.25
v 1.75 2 -4.25
v 1.25 2 -4.25
v 1.75 2 -3.25
v 1.25 0.5 -4.25
v 1.25 1.5 -3.25
v 1.25 1.5 -4.25
v 1.25 0.5 -3.25
v -1.25 1.5 -2.75
v -1.25 2 -4.25
v -1.25 2 -3.25
v -1.25 1.5 -4.25
v -1.25 1.5 -4.25
v -1.25 0.5 -3.25
v -1.25 0.5 -4.25
v -1.25 1.5 -3.25
v -1.25 0 -3.25
v -1.25 1.5 -2.75
v -1.25 0.5 -2.75
v -1.25 1.5 -3.25
v -1.25 0.5 -4.75
v -1.25 0 -3.25
v -1.25 0 -4.25
v -1.25 0.5 -3.25
v -1.25 2 -4.25
v -1.25 0.5 -4.75
v -1.25 1.5 -4.75
v -1.25 0.5 -4.25
v -1.75 0 -4.25
v -1.75 1.5 -4.75
v -1.75 0.5 -4.75
v -1.75 1.5 -4.25
v -1.75 0.5 -2.75
v -1.75 0 -4.25
v -1.75 0 -3.25
v -1.75 0.5 -4.25
v -1.75 2 -3.25
v -1.75 0.5 -2.75
v -1.75 1.5 -2.75
v -1.75 0.5 -3.25
v -1.75 1.5 -4.75
v -1.75 2 -3.25
v -1.75 2 -4.25
v -1.75 1.5 -3.25
v -1.75 2 -4.25
v -1.25 1.5 -4.75
v -1.75 1.5 -4.75
v -1.25 2 -4.25
v -1.75 0.5 -4.75
v -1.25 0 -4.25
v -1.75 0 -4.25
v -1.25 0.5 -4.75
v -1.75 0 -3.25
v -1.25 0.5 -2.75
v -1.75 0.5 -2.75
v -1.25 0 -3.25
v -1.75 1.5 -4.75
v -1.25 0.5 -4.75
v -1.75 0.5 -4.75
v -1.25 1.5 -4.75
v -1.75 0 -4.25
v -1.25 0 -3.25
v -1.75 0 -3.25
v -1.25 0 -4.25
v -1.75 0.5 -2.75
v -1.25 1.5 -2.75
v -1.75 1.5 -2.75
v -1.25 0.5 -2.75
v -1.75 1.5 -2.75
v -1.25 2 -3.25
v -1.75 2 -3.25
v -1.25 1.5 -2.75
v -1.75 2 -3.25
v -1.25 2 -4.25
v -1.75 2 -4.25
v -1.25 2 -3.25
v -1.75 0.5 -4.25
v -1.75 1.5 -3.25
v -1.75 1.5 -4.25
v -1.75 0.5 -3.25
vt 0.15625 0.96875
vt 0.25 1
vt 0.1875 1
vt 0.15625 0.96875
vt 0.25 0.96875
vt 0.25 1
vt 0 0.9375
vt 0.0625 1
vt 0 1
vt 0 0.9375
vt 0.0625 0.9375
vt 0.0625 1
vt 0.15625 0.96875
vt 0.25 1
vt 0.1875 1
vt 0.15625 0.96875
vt 0.25 0.96875
vt 0.25 1
vt 0.15625 0.96875
vt 0.25 1
vt 0.1875 1
vt 0.15625 0.96875
vt 0.25 0.96875
vt 0.25 1
vt 0.15625 0.96875
vt 0.25 1
vt 0.1875 1
vt 0.15625 0.96875
vt 0.25 0.96875
vt 0.25 1
vt 0.15625 0.96875
vt 0.25 1
vt 0.1875 1
vt 0.15625 0.96875
vt 0.25 0.96875
vt 0.25 1
vt 0.15625 0.96875
vt 0.25 1
vt 0.1875 1
vt 0.15625 0.96875
vt 0.25 0.96875
vt 0.25 1
vt 0.15625 0.96875
vt 0.25 1
vt 0.1875 1
vt 0.15625 0.96875
vt 0.25 0.96875
vt 0.25 1
vt 0.15625 0.96875
vt 0.25 1
vt 0.1875 1
vt 0.15625 0.96875
vt 0.25 0.96875
vt 0.25 1
vt 0.078125 0.9375
vt 0.109375 1
vt 0.078125 1
vt 0.078125 0.9375
vt 0.109375 0.9375
vt 0.109375 1
vt 0.078125 0.9375
vt 0.109375 1
vt 0.078125 1
vt 0.078125 0.9375
vt 0.109375 0.9375
vt 0.109375 1
vt 0.078125 0.9375
vt 0.109375 1
vt 0.078125 1
vt 0.078125 0.9375
vt 0.109375 0.9375
vt 0.109375 1
vt 0.078125 0.9375
vt 0.109375 1
vt 0.078125 1
vt 0.078125 0.9375
vt 0.109375 0.9375
vt 0.109375 1
vt 0.078125 0.9375
vt 0.109375 1
vt 0.078125 1
vt 0.078125 0.9375
vt 0.109375 0.9375
vt 0.109375 1
vt 0.078125 0.9375
vt 0.109375 1
vt 0.078125 1
vt 0.078125 0.9375
vt 0.109375 0.9375
vt 0.109375 1
vt 0.078125 0.9375
vt 0.109375 1
vt 0.078125 1
vt 0.078125 0.9375
vt 0.109375 0.9375
vt 0.109375 1
vt 0.078125 0.9375
vt 0.109375 1
vt 0.078125 1
vt 0.078125 0.9375
vt 0.109375 0.9375
vt 0.109375 1
vt 0 0.9375
vt 0.0625 1
vt 0 1
vt 0 0.9375
vt 0.0625 0.9375
vt 0.0625 1
vt 0.15625 0.96875
vt 0.25 1
vt 0.1875 1
vt 0.15625 0.96875
vt 0.25 0.96875
vt 0.25 1
vt 0 0.9375
vt 0.0625 1
vt 0 1
vt 0 0.9375
vt 0.0625 0.9375
vt 0.0625 1
vt 0.15625 0.96875
vt 0.25 1
vt 0.1875 1
vt 0.15625 0.96875
vt 0.25 0.96875
vt 0.25 1
vt 0.15625 0.96875
vt 0.25 1
vt 0.1875 1
vt 0.15625 0.96875
vt 0.25 0.96875
vt 0.25 1
vt 0.15625 0.96875
vt 0.25 1
vt 0.1875 1
vt 0.15625 0.96875
vt 0.25 0.96875
vt 0.25 1
vt 0.15625 0.96875
vt 0.25 1
vt 0.1875 1
vt 0.15625 0.96875
vt 0.25 0.96875
vt 0.25 1
vt 0.15625 0.96875
vt 0.25 1
vt 0.1875 1
vt 0.15625 0.96875
vt 0.25 0.96875
vt 0.25 1
vt 0.15625 0.96875
vt 0.25 1
vt 0.1875 1
vt 0.15625 0.96875
vt 0.25 0.96875
vt 0.25 1
vt 0.15625 0.96875
vt 0.25 1
vt 0.1875 1
vt 0.15625 0.96875
vt 0.25 0.96875
vt 0.25 1
vt 0.078125 0.9375
vt 0.109375 1
vt 0.078125 1
vt 0.078125 0.9375
vt 0.109375 0.9375
vt 0.109375 1
vt 0.078125 0.9375
vt 0.109375 1
vt 0.078125 1
vt 0.078125 0.9375
vt 0.109375 0.9375
vt 0.109375 1
vt 0.078125 0.9375
vt 0.109375 1
vt 0.078125 1
vt 0.078125 0.9375
vt 0.109375 0.9375
vt 0.109375 1
vt 0.078125 0.9375
vt 0.109375 1
vt 0.078125 1
vt 0.078125 0.9375
vt 0.109375 0.9375
vt 0.109375 1
vt 0.078125 0.9375
vt 0.109375 1
vt 0.078125 1
vt 0.078125 0.9375
vt 0.109375 0.9375
vt 0.109375 1
vt 0.078125 0.9375
vt 0.109375 1
vt 0.078125 1
vt 0.078125 0.9375
vt 0.109375 0.9375
vt 0.109375 1
vt 0.078125 0.9375
vt 0.109375 1
vt 0.078125 1
vt 0.078125 0.9375
vt 0.109375 0.9375
vt 0.109375 1
vt 0.078125 0.9375
vt 0.109375 1
vt 0.078125 1
vt 0.078125 0.9375
vt 0.109375 0.9375
vt 0.109375 1
vt 0 0.9375
vt 0.0625 1
vt 0 1
vt 0 0.9375
vt 0.0625 0.9375
vt 0.0625 1
vt 0.15625 0.96875
vt 0.25 1
vt 0.1875 1
vt 0.15625 0.96875
vt 0.25 0.96875
vt 0.25 1
vt 0 0.9375
vt 0.0625 1
vt 0 1
vt 0 0.9375
vt 0.0625 0.9375
vt 0.0625 1
vt 0.15625 0.96875
vt 0.25 1
vt 0.1875 1
vt 0.15625 0.96875
vt 0.25 0.96875
vt 0.25 1
vt 0.15625 0.96875
vt 0.25 1
vt 0.1875 1
vt 0.15625 0.96875
vt 0.25 0.96875
vt 0.25 1
vt 0.15625 0.96875
vt 0.25 1
vt 0.1875 1
vt 0.15625 0.96875
vt 0.25 0.96875
vt 0.25 1
vt 0.15625 0.96875
vt 0.25 1
vt 0.1875 1
vt 0.15625 0.96875
vt 0.25 0.96875
vt 0.25 1
vt 0.15625 0.96875
vt 0.25 1
vt 0.1875 1
vt 0.15625 0.96875
vt 0.25 0.96875
vt 0.25 1
vt 0.15625 0.96875
vt 0.25 1
vt 0.1875 1
vt 0.15625 0.96875
vt 0.25 0.96875
vt 0.25 1
vt 0.15625 0.96875
vt 0.25 1
vt 0.1875 1
vt 0.15625 0.96875
vt 0.25 0.96875
vt 0.25 1
vt 0.078125 0.9375
vt 0.109375 1
vt 0.078125 1
vt 0.078125 0.9375
vt 0.109375 0.9375
vt 0.109375 1
vt 0.078125 0.9375
vt 0.109375 1
vt 0.078125 1
vt 0.078125 0.9375
vt 0.109375 0.9375
vt 0.109375 1
vt 0.078125 0.9375
vt 0.109375 1
vt 0.078125 1
vt 0.078125 0.9375
vt 0.109375 0.9375
vt 0.109375 1
vt 0.078125 0.9375
vt 0.109375 1
vt 0.078125 1
vt 0.078125 0.9375
vt 0.109375 0.9375
vt 0.109375 1
vt 0.078125 0.9375
vt 0.109375 1
vt 0.078125 1
vt 0.078125 0.9375
vt 0.109375 0.9375
vt 0.109375 1
vt 0.078125 0.9375
vt 0.109375 1
vt 0.078125 1
vt 0.078125 0.9375
vt 0.109375 0.9375
vt 0.109375 1
vt 0.078125 0.9375
vt 0.109375 1
vt 0.078125 1
vt 0.078125 0.9375
vt 0.109375 0.9375
vt 0.109375 1
vt 0.078125 0.9375
vt 0.109375 1
vt 0.078125 1
vt 0.078125 0.9375
vt 0.109375 0.9375
vt 0.109375 1
vt 0 0.9375
vt 0.0625 1
vt 0 1
vt 0 0.9375
vt 0.0625 0.9375
vt 0.0625 1
vt 0.15625 0.96875
vt 0.25 1
vt 0.1875 1
vt 0.15625 0.96875
vt 0.25 0.96875
vt 0.25 1
vt 0 0.9375
vt 0.0625 1
vt 0 1
vt 0 0.9375
vt 0.0625 0.9375
vt 0.0625 1
vt 0.15625 0.96875
vt 0.25 1
vt 0.1875 1
vt 0.15625 0.96875
vt 0.25 0.96875
vt 0.25 1
vt 0.15625 0.96875
vt 0.25 1
vt 0.1875 1
vt 0.15625 0.96875
vt 0.25 0.96875
vt 0.25 1
vt 0.15625 0.96875
vt 0.25 1
vt 0.1875 1
vt 0.15625 0.96875
vt 0.25 0.96875
vt 0.25 1
vt 0.15625 0.96875
vt 0.25 1
vt 0.1875 1
vt 0.15625 0.96875
vt 0.25 0.96875
vt 0.25 1
vt 0.15625 0.96875
vt 0.25 1
vt 0.1875 1
vt 0.15625 0.96875
vt 0.25 0.96875
vt 0.25 1
vt 0.15625 0.96875
vt 0.25 1
vt 0.1875 1
vt 0.15625 0.96875
vt 0.25 0.96875
vt 0.25 1
vt 0.15625 0.96875
vt 0.25 1
vt 0.1875 1
vt 0.15625 0.96875
vt 0.25 0.96875
vt 0.25 1
vt 0.078125 0.9375
vt 0.109375 1
vt 0.078125 1
vt 0.078125 0.9375
vt 0.109375 0.9375
vt 0.109375 1
vt 0.078125 0.9375
vt 0.109375 1
vt 0.078125 1
vt 0.078125 0.9375
vt 0.109375 0.9375
vt 0.109375 1
vt 0.078125 0.9375
vt 0.109375 1
vt 0.078125 1
vt 0.078125 0.9375
vt 0.109375 0.9375
vt 0.109375 1
vt 0.078125 0.9375
vt 0.109375 1
vt 0.078125 1
vt 0.078125 0.9375
vt 0.109375 0.9375
vt 0.109375 1
vt 0.078125 0.9375
vt 0.109375 1
vt 0.078125 1
vt 0.078125 0.9375
vt 0.109375 0.9375
vt 0.109375 1
vt 0.078125 0.9375
vt 0.109375 1
vt 0.078125 1
vt 0.078125 0.9375
vt 0.109375 0.9375
vt 0.109375 1
vt 0.078125 0.9375
vt 0.109375 1
vt 0.078125 1
vt 0.078125 0.9375
vt 0.109375 0.9375
vt 0.109375 1
vt 0.078125 0.9375
vt 0.109375 1
vt 0.078125 1
vt 0.078125 0.9375
vt 0.109375 0.9375
vt 0.109375 1
vt 0 0.9375
vt 0.0625 1
vt 0 1
vt 0 0.9375
vt 0.0625 0.9375
vt 0.0625 1
vn 1 0 0
vn 1 0 0
vn 1 0 0
vn 1 0 0
vn 1 0 0
vn 1 0 0
vn 1 0 0
vn 1 0 0
vn 1 0 0
vn 1 0 0
vn 1 0 0
vn 1 0 0
vn 1 0 0
vn 1 0 0
vn 1 0 0
vn 1 0 0
vn 1 0 0
vn 1 0 0
vn 1 0 0
vn 1 0 0
vn 1 0 0
vn 1 0 0
vn 1 0 0
vn 1 0 0
vn 1 0 0
vn 1 0 0
vn 1 0 0
vn 1 0 0
vn 1 0 0
vn 1 0 0
vn -1 0 0
vn -1 0 0
vn -1 0 0
vn -1 0 0
vn -1 0 0
vn -1 0 0
vn -1 0 0
vn -1 0 0
vn -1 0 0
vn -1 0 0
vn -1 0 0
vn -1 0 0
vn -1 0 0
vn -1 0 0
vn -1 0 0
vn -1 0 0
vn -1 0 0
vn -1 0 0
vn -1 0 0
vn -1 0 0
vn -1 0 0
vn -1 0 0
vn -1 0 0
vn -1 0 0
vn 0 0.7071067811865475 -0.7071067811865475
vn 0 0.7071067811865475 -0.7071067811865475
vn 0 0.7071067811865475 -0.7071067811865475
vn 0 0.7071067811865475 -0.7071067811865475
vn 0 0.7071067811865475 -0.7071067811865475
vn 0 0.7071067811865475 -0.7071067811865475
vn 0 -0.7071067811865475 -0.7071067811865475
vn 0 -0.7071067811865475 -0.7071067811865475
vn 0 -0.7071067811865475 -0.7071067811865475
vn 0 -0.7071067811865475 -0.7071067811865475
vn 0 -0.7071067811865475 -0.7071067811865475
vn 0 -0.7071067811865475 -0.7071067811865475
vn 0 -0.7071067811865475 0.7071067811865475
vn 0 -0.7071067811865475 0.7071067811865475
vn 0 -0.7071067811865475 0.7071067811865475
vn 0 -0.7071067811865475 0.7071067811865475
vn 0 -0.7071067811865475 0.7071067811865475
vn 0 -0.7071067811865475 0.7071067811865475
vn 0 0 -1
vn 0 0 -1
vn 0 0 -1
vn 0 0 -1
vn 0 0 -1
vn 0 0 -1
vn 0 -1 0
vn 0 -1 0
vn 0 -1 0
vn 0 -1 0
vn 0 -1 0
vn 0 -1 0
vn 0 0 1
vn 0 0 1
vn 0 0 1
vn 0 0 1
vn 0 0 1
vn 0 0 1
vn 0 0.7071067811865475 0.7071067811865475
vn 0 0.7071067811865475 0.7071067811865475
vn 0 0.7071067811865475 0.7071067811865475
vn 0 0.7071067811865475 0.7071067811865475
vn 0 0.7071067811865475 0.7071067811865475
vn 0 0.7071067811865475 0.7071067811865475
vn 0 1 0
vn 0 1 0
vn 0 1 0
vn 0 1 0
vn 0 1 0
vn 0 1 0
vn -1 0 0
vn -1 0 0
vn -1 0 0
vn -1 0 0
vn -1 0 0
vn -1 0 0
vn 1 0 0
vn 1 0 0
vn 1 0 0
vn 1 0 0
vn 1 0 0
vn 1 0 0
vn 1 0 0
vn 1 0 0
vn 1 0 0
vn 1 0 0
vn 1 0 0
vn 1 0 0
vn 1 0 0
vn 1 0 0
vn 1 0 0
vn 1 0 0
vn 1 0 0
vn 1 0 0
vn 1 0 0
vn 1 0 0
vn 1 0 0
vn 1 0 0
vn 1 0 0
vn 1 0 0
vn 1 0 0
vn 1 0 0
vn 1 0 0
vn 1 0 0
vn 1 0 0
vn 1 0 0
vn -1 0 0
vn -1 0 0
vn -1 0 0
vn -1 0 0
vn -1 0 0
vn -1 0 0
vn -1 0 0
vn -1 0 0
vn -1 0 0
vn -1 0 0
vn -1 0 0
vn -1 0 0
vn -1 0 0
vn -1 0 0
vn -1 0 0
vn -1 0 0
vn -1 0 0
vn -1 0 0
vn -1 0 0
vn -1 0 0
vn -1 0 0
vn -1 0 0
vn -1 0 0
vn -1 0 0
vn 0 0.7071067811865475 -0.7071067811865475
vn 0 0.7071067811865475 -0.7071067811865475
vn 0 0.7071067811865475 -0.7071067811865475
vn 0 0.7071067811865475 -0.7071067811865475
vn 0 0.7071067811865475 -0.7071067811865475
vn 0 0.7071067811865475 -0.7071067811865475
vn 0 -0.7071067811865475 -0.7071067811865475
vn 0 -0.7071067811865475 -0.7071067811865475
vn 0 -0.7071067811865475 -0.7071067811865475
vn 0 -0.7071067811865475 -0.7071067811865475
vn 0 -0.7071067811865475 -0.7071067811865475
vn 0 -0.7071067811865475 -0.7071067811865475
vn 0 -0.7071067811865475 0.7071067811865475
vn 0 -0.7071067811865475 0.7071067811865475
vn 0 -0.7071067811865475 0.7071067811865475
vn 0 -0.7071067811865475 0.7071067811865475
vn 0 -0.7071067811865475 0.7071067811865475
vn 0 -0.7071067811865475 0.7071067811865475
vn 0 0 -1
vn 0 0 -1
vn 0 0 -1
vn 0 0 -1
vn 0 0 -1
vn 0 0 -1
vn 0 -1 0
vn 0 -1 0
vn 0 -1 0
vn 0 -1 0
vn 0 -1 0
vn 0 -1 0
vn 0 0 1
vn 0 0 1
vn 0 0 1
vn 0 0 1
vn 0 0 1
vn 0 0 1
vn 0 0.7071067811865475 0.7071067811865475
vn 0 0.7071067811865475 0.7071067811865475
vn 0 0.7071067811865475 0.7071067811865475
vn 0 0.7071067811865475 0.7071067811865475
vn 0 0.7071067811865475 0.7071067811865475
vn 0 0.7071067811865475 0.7071067811865475
vn 0 1 0
vn 0 1 0
vn 0 1 0
vn 0 1 0
vn 0 1 0
vn 0 1 0
vn -1 0 0
vn -1 0 0
vn -1 0 0
vn -1 0 0
vn -1 0 0
vn -1 0 0
vn 1 0 0
vn 1 0 0
vn 1 0 0
vn 1 0 0
vn 1 0 0
vn 1 0 0
vn 1 0 0
vn 1 0 0
vn 1 0 0
vn 1 0 0
vn 1 0 0
vn 1 0 0
vn 1 0 0
vn 1 0 0
vn 1 0 0
vn 1 0 0
vn 1 0 0
vn 1 0 0
vn 1 0 0
vn 1 0 0
vn 1 0 0
vn 1 0 0
vn 1 0 0
vn 1 0 0
vn 1 0 0
vn 1 0 0
vn 1 0 0
vn 1 0 0
vn 1 0 0
vn 1 0 0
vn -1 0 0
vn -1 0 0
vn -1 0 0
vn -1 0 0
vn -1 0 0
vn -1 0 0
vn -1 0 0
vn -1 0 0
vn -1 0 0
vn -1 0 0
vn -1 0 0
vn -1 0 0
vn -1 0 0
vn -1 0 0
vn -1 0 0
vn -1 0 0
vn -1 0 0
vn -1 0 0
vn -1 0 0
vn -1 0 0
vn -1 0 0
vn -1 0 0
vn -1 0 0
vn -1 0 0
vn 0 0.7071067811865475 -0.7071067811865475
vn 0 0.7071067811865475 -0.7071067811865475
vn 0 0.7071067811865475 -0.7071067811865475
vn 0 0.7071067811865475 -0.7071067811865475
vn 0 0.7071067811865475 -0.7071067811865475
vn 0 0.7071067811865475 -0.7071067811865475
vn 0 -0.7071067811865475 -0.7071067811865475
vn 0 -0.7071067811865475 -0.7071067811865475
vn 0 -0.7071067811865475 -0.7071067811865475
vn 0 -0.7071067811865475 -0.7071067811865475
vn 0 -0.7071067811865475 -0.7071067811865475
vn 0 -0.7071067811865475 -0.7071067811865475
vn 0 -0.7071067811865475 0.7071067811865475
vn 0 -0.7071067811865475 0.7071067811865475
vn 0 -0.7071067811865475 0.7071067811865475
vn 0 -0.7071067811865475 0.7071067811865475
vn 0 -0.7071067811865475 0.7071067811865475
vn 0 -0.7071067811865475 0.7071067811865475
vn 0 0 -1
vn 0 0 -1
vn 0 0 -1
vn 0 0 -1
vn 0 0 -1
vn 0 0 -1
vn 0 -1 0
vn 0 -1 0
vn 0 -1 0
vn 0 -1 0
vn 0 -1 0
vn 0 -1 0
vn 0 0 1
vn 0 0 1
vn 0 0 1
vn 0 0 1
vn 0 0 1
vn 0 0 1
vn 0 0.7071067811865475 0.7071067811865475
vn 0 0.7071067811865475 0.7071067811865475
vn 0 0.7071067811865475 0.7071067811865475
vn 0 0.7071067811865475 0.7071067811865475
vn 0 0.7071067811865475 0.7071067811865475
vn 0 0.7071067811865475 0.7071067811865475
vn 0 1 0
vn 0 1 0
vn 0 1 0
vn 0 1 0
vn 0 1 0
vn 0 1 0
vn -1 0 0
vn -1 0 0
vn -1 0 0
vn -1 0 0
vn -1 0 0
vn -1 0 0
vn 1 0 0
vn 1 0 0
vn 1 0 0
vn 1 0 0
vn 1 0 0
vn 1 0 0
vn 1 0 0
vn 1 0 0
vn 1 0 0
vn 1 0 0
vn 1 0 0
vn 1 0 0
vn 1 0 0
vn 1 0 0
vn 1 0 0
vn 1 0 0
vn 1 0 0
vn 1 0 0
vn 1 0 0
vn 1 0 0
vn 1 0 0
vn 1 0 0
vn 1 0 0
vn 1 0 0
vn 1 0 0
vn 1 0 0
vn 1 0 0
vn 1 0 0
vn 1 0 0
vn 1 0 0
vn -1 0 0
vn -1 0 0
vn -1 0 0
vn -1 0 0
vn -1 0 0
vn -1 0 0
vn -1 0 0
vn -1 0 0
vn -1 0 0
vn -1 0 0
vn -1 0 0
vn -1 0 0
vn -1 0 0
vn -1 0 0
vn -1 0 0
vn -1 0 0
vn -1 0 0
vn -1 0 0
vn -1 0 0
vn -1 0 0
vn -1 0 0
vn -1 0 0
vn -1 0 0
vn -1 0 0
vn 0 0.7071067811865475 -0.7071067811865475
vn 0 0.7071067811865475 -0.7071067811865475
vn 0 0.7071067811865475 -0.7071067811865475
vn 0 0.7071067811865475 -0.7071067811865475
vn 0 0.7071067811865475 -0.7071067811865475
vn 0 0.7071067811865475 -0.7071067811865475
vn 0 -0.7071067811865475 -0.7071067811865475
vn 0 -0.7071067811865475 -0.7071067811865475
vn 0 -0.7071067811865475 -0.7071067811865475
vn 0 -0.7071067811865475 -0.7071067811865475
vn 0 -0.7071067811865475 -0.7071067811865475
vn 0 -0.7071067811865475 -0.7071067811865475
vn 0 -0.7071067811865475 0.7071067811865475
vn 0 -0.7071067811865475 0.7071067811865475
vn 0 -0.7071067811865475 0.7071067811865475
vn 0 -0.7071067811865475 0.7071067811865475
vn 0 -0.7071067811865475 0.7071067811865475
vn 0 -0.7071067811865475 0.7071067811865475
vn 0 0 -1
vn 0 0 -1
vn 0 0 -1
vn 0 0 -1
vn 0 0 -1
vn 0 0 -1
vn 0 -1 0
vn 0 -1 0
vn 0 -1 0
vn 0 -1 0
vn 0 -1 0
vn 0 -1 0
vn 0 0 1
vn 0 0 1
vn 0 0 1
vn 0 0 1
vn 0 0 1
vn 0 0 1
vn 0 0.7071067811865475 0.7071067811865475
vn 0 0.7071067811865475 0.7071067811865475
vn 0 0.7071067811865475 0.7071067811865475
vn 0 0.7071067811865475 0.7071067811865475
vn 0 0.7071067811865475 0.7071067811865475
vn 0 0.7071067811865475 0.7071067811865475
vn 0 1 0
vn 0 1 0
vn 0 1 0
vn 0 1 0
vn 0 1 0
vn 0 1 0
vn -1 0 0
vn -1 0 0
vn -1 0 0
vn -1 0 0
vn -1 0 0
vn -1 0 0
g Scene
usemtl material1
f 1/1/1 2/2/2 3/3/3
f 1/4/4 4/5/5 2/6/6
f 5/7/7 6/8/8 7/9/9
f 5/10/10 8/11/11 6/12/12
f 9/13/13 10/14/14 11/15/15
f 9/16/16 12/17/17 10/18/18
f 13/19/19 14/20/20 15/21/21
f 13/22/22 16/23/23 14/24/24
f 17/25/25 18/26/26 19/27/27
f 17/28/28 20/29/29 18/30/30
f 21/31/31 22/32/32 23/33/33
f 21/34/34 24/35/35 22/36/36
f 25/37/37 26/38/38 27/39/39
f 25/40/40 28/41/41 26/42/42
f 29/43/43 30/44/44 31/45/45
f 29/46/46 32/47/47 30/48/48
f 33/49/49 34/50/50 35/51/51
f 33/52/52 36/53/53 34/54/54
f 37/55/55 38/56/56 39/57/57
f 37/58/58 40/59/59 38/60/60
f 41/61/61 42/62/62 43/63/63
f 41/64/64 44/65/65 42/66/66
f 45/67/67 46/68/68 47/69/69
f 45/70/70 48/71/71 46/72/72
f 49/73/73 50/74/74 51/75/75
f 49/76/76 52/77/77 50/78/78
f 53/79/79 54/80/80 55/81/81
f 53/82/82 56/83/83 54/84/84
f 57/85/85 58/86/86 59/87/87
f 57/88/88 60/89/89 58/90/90
f 61/91/91 62/92/92 63/93/93
f 61/94/94 64/95/95 62/96/96
f 65/97/97 66/98/98 67/99/99
f 65/100/100 68/101/101 66/102/102
f 69/103/103 70/104/104 71/105/105
f 69/106/106 72/107/107 70/108/108
f 73/109/109 74/110/110 75/111/111
f 73/112/112 76/113/113 74/114/114
f 77/115/115 78/116/116 79/117/117
f 77/118/118 80/119/119 78/120/120
f 81/121/121 82/122/122 83/123/123
f 81/124/124 84/125/125 82/126/126
f 85/127/127 86/128/128 87/129/129
f 85/130/130 88/131/131 86/132/132
f 89/133/133 90/134/134 91/135/135
f 89/136/136 92/137/137 90/138/138
f 93/139/139 94/140/140 95/141/141
f 93/142/142 96/143/143 94/144/144
f 97/145/145 98/146/146 99/147/147
f 97/148/148 100/149/149 98/150/150
f 101/151/151 102/152/152 103/153/153
f 101/154/154 104/155/155 102/156/156
f 105/157/157 106/158/158 107/159/159
f 105/160/160 108/161/161 106/162/162
f 109/163/163 110/164/164 111/165/165
f 109/166/166 112/167/167 110/168/168
f 113/169/169 114/170/170 115/171/171
f 113/172/172 116/173/173 114/174/174
f 117/175/175 118/176/176 119/177/177
f 117/178/178 120/179/179 118/180/180
f 121/181/181 122/182/182 123/183/183
f 121/184/184 124/185/185 122/186/186
f 125/187/187 126/188/188 127/189/189
f 125/190/190 128/191/191 126/192/192
f 129/193/193 130/194/194 131/195/195
f 129/196/196 132/197/197 130/198/198
f 133/199/199 134/200/200 135/201/201
f 133/202/202 136/203/203 134/204/204
f 137/205/205 138/206/206 139/207/207
f 137/208/208 140/209/209 138/210/210
f 141/211/211 142/212/212 143/213/213
f 141/214/214 144/215/215 142/216/216
f 145/217/217 146/218/218 147/219/219
f 145/220/220 148/221/221 146/222/222
f 149/223/223 150/224/224 151/225/225
f 149/226/226 152/227/227 150/228/228
f 153/229/229 154/230/230 155/231/231
f 153/232/232 156/233/233 154/234/234
f 157/235/235 158/236/236 159/237/237
f 157/238/238 160/239/239 158/240/240
f 161/241/241 162/242/242 163/243/243
f 161/244/244 164/245/245 162/246/246
f 165/247/247 166/248/248 167/249/249
f 165/250/250 168/251/251 166/252/252
f 169/253/253 170/254/254 171/255/255
f 169/256/256 172/257/257 170/258/258
f 173/259/259 174/260/260 175/261/261
f 173/262/262 176/263/263 174/264/264
f 177/265/265 178/266/266 179/267/267
f 177/268/268 180/269/269 178/270/270
f 181/271/271 182/272/272 183/273/273
f 181/274/274 184/275/275 182/276/276
f 185/277/277 186/278/278 187/279/279
f 185/280/280 188/281/281 186/282/282
f 189/283/283 190/284/284 191/285/285
f 189/286/286 192/287/287 190/288/288
f 193/289/289 194/290/290 195/291/291
f 193/292/292 196/293/293 194/294/294
f 197/295/295 198/296/296 199/297/297
f 197/298/298 200/299/299 198/300/300
f 201/301/301 202/302/302 203/303/303
f 201/304/304 204/305/305 202/306/306
f 205/307/307 206/308/308 207/309/309
f 205/310/310 208/311/311 206/312/312
f 209/313/313 210/314/314 211/315/315
f 209/316/316 212/317/317 210/318/318
f 213/319/319 214/320/320 215/321/321
f 213/322/322 216/323/323 214/324/324
f 217/325/325 218/326/326 219/327/327
f 217/328/328 220/329/329 218/330/330
f 221/331/331 222/332/332 223/333/333
f 221/334/334 224/335/335 222/336/336
f 225/337/337 226/338/338 227/339/339
f 225/340/340 228/341/341 226/342/342
f 229/343/343 230/344/344 231/345/345
f 229/346/346 232/347/347 230/348/348
f 233/349/349 234/350/350 235/351/351
f 233/352/352 236/353/353 234/354/354
f 237/355/355 238/356/356 239/357/357
f 237/358/358 240/359/359 238/360/360
f 241/361/361 242/362/362 243/363/363
f 241/364/364 244/365/365 242/366/366
f 245/367/367 246/368/368 247/369/369
f 245/370/370 248/371/371 246/372/372
f 249/373/373 250/374/374 251/375/375
f 249/376/376 252/377/377 250/378/378
f 253/379/379 254/380/380 255/381/381
f 253/382/382 256/383/383 254/384/384
f 257/385/385 258/386/386 259/387/387
f 257/388/388 260/389/389 258/390/390
f 261/391/391 262/392/392 263/393/393
f 261/394/394 264/395/395 262/396/396
f 265/397/397 266/398/398 267/399/399
f 265/400/400 268/401/401 266/402/402
f 269/403/403 270/404/404 271/405/405
f 269/406/406 272/407/407 270/408/408
f 273/409/409 274/410/410 275/411/411
f 273/412/412 276/413/413 274/414/414
f 277/415/415 278/416/416 279/417/417
f 277/418/418 280/419/419 278/420/420
f 281/421/421 282/422/422 283/423/423
f 281/424/424 284/425/425 282/426/426
f 285/427/427 286/428/428 287/429/429
f 285/430/430 288/431/431 286/432/432
