mtllib material.mtl
o Default
v 0 0 0.25
v 0.25 0 0
v 0.25 0 0.25
v 0 0 0
v 0.25 0 0.25
v 0.25 0.25 0
v 0.25 0.25 0.25
v 0.25 0 0
v 0.25 0 0
v 0 0.25 0
v 0.25 0.25 0
v 0 0 0
v 0 0 0
v 0 0.25 0.25
v 0 0.25 0
v 0 0 0.25
v 0 0.25 0.25
v 0.25 0.25 0
v 0 0.25 0
v 0.25 0.25 0.25
v 0 0 0.25
v 0.25 0.25 0.25
v 0 0.25 0.25
v 0.25 0 0.25
vt 0 0
vt 0.25 0.3333333432674408
vt 0 0.3333333432674408
vt 0 0
vt 0.25 0
vt 0.25 0.3333333432674408
vt 0 0.3333333432674408
vt 0.25 0.6666666865348816
vt 0 0.6666666865348816
vt 0 0.3333333432674408
vt 0.25 0.3333333432674408
vt 0.25 0.6666666865348816
vt 0.25 0.3333333432674408
vt 0.5 0.6666666865348816
vt 0.25 0.6666666865348816
vt 0.25 0.3333333432674408
vt 0.5 0.3333333432674408
vt 0.5 0.6666666865348816
vt 0.5 0.3333333432674408
vt 0.75 0.6666666865348816
vt 0.5 0.6666666865348816
vt 0.5 0.3333333432674408
vt 0.75 0.3333333432674408
vt 0.75 0.6666666865348816
vt 0.75 0.6666666865348816
vt 1 1
vt 0.75 1
vt 0.75 0.6666666865348816
vt 1 0.6666666865348816
vt 1 1
vt 0.75 0.3333333432674408
vt 1 0.6666666865348816
vt 0.75 0.6666666865348816
vt 0.75 0.3333333432674408
vt 1 0.3333333432674408
vt 1 0.6666666865348816
vn 0 -1 0
vn 0 -1 0
vn 0 -1 0
vn 0 -1 0
vn 0 -1 0
vn 0 -1 0
vn 1 0 0
vn 1 0 0
vn 1 0 0
vn 1 0 0
vn 1 0 0
vn 1 0 0
vn 0 0 -1
vn 0 0 -1
vn 0 0 -1
vn 0 0 -1
vn 0 0 -1
vn 0 0 -1
vn -1 0 0
vn -1 0 0
vn -1 0 0
vn -1 0 0
vn -1 0 0
vn -1 0 0
vn 0 1 0
vn 0 1 0
vn 0 1 0
vn 0 1 0
vn 0 1 0
vn 0 1 0
vn 0 0 1
vn 0 0 1
vn 0 0 1
vn 0 0 1
vn 0 0 1
vn 0 0 1
g textured_cube
usemtl material1
f 1/1/1 2/2/2 3/3/3
f 1/4/4 4/5/5 2/6/6
f 5/7/7 6/8/8 7/9/9
f 5/10/10 8/11/11 6/12/12
f 9/13/13 10/14/14 11/15/15
f 9/16/16 12/17/17 10/18/18
f 13/19/19 14/20/20 15/21/21
f 13/22/22 16/23/23 14/24/24
f 17/25/25 18/26/26 19/27/27
f 17/28/28 20/29/29 18/30/30
f 21/31/31 22/32/32 23/33/33
f 21/34/34 24/35/35 22/36/36
