o Default
v -0.19134171307086945 0 0.4619397521018982
v 0.19134171307086945 1 0.4619397521018982
v -0.19134171307086945 1 0.4619397521018982
v 0.19134171307086945 0 0.4619397521018982
v 0.19134171307086945 0 0.4619397521018982
v 0.4619397521018982 1 0.19134171307086945
v 0.19134171307086945 1 0.4619397521018982
v 0.4619397521018982 0 0.19134171307086945
v 0.4619397521018982 0 0.19134171307086945
v 0.4619397521018982 1 -0.19134171307086945
v 0.4619397521018982 1 0.19134171307086945
v 0.4619397521018982 0 -0.19134171307086945
v 0.4619397521018982 0 -0.19134171307086945
v 0.19134171307086945 1 -0.4619397521018982
v 0.4619397521018982 1 -0.19134171307086945
v 0.19134171307086945 0 -0.4619397521018982
v 0.19134171307086945 0 -0.4619397521018982
v -0.19134171307086945 1 -0.4619397521018982
v 0.19134171307086945 1 -0.4619397521018982
v -0.19134171307086945 0 -0.4619397521018982
v -0.19134171307086945 0 -0.4619397521018982
v -0.4619397521018982 1 -0.19134171307086945
v -0.19134171307086945 1 -0.4619397521018982
v -0.4619397521018982 0 -0.19134171307086945
v -0.4619397521018982 0 -0.19134171307086945
v -0.4619397521018982 1 0.19134171307086945
v -0.4619397521018982 1 -0.19134171307086945
v -0.4619397521018982 0 0.19134171307086945
v -0.4619397521018982 0 0.19134171307086945
v -0.19134171307086945 1 0.4619397521018982
v -0.4619397521018982 1 0.19134171307086945
v -0.19134171307086945 0 0.4619397521018982
v 0 1 0
v -0.19134171307086945 1 0.4619397521018982
v 0.19134171307086945 1 0.4619397521018982
v -0.4619397521018982 1 0.19134171307086945
v -0.4619397521018982 1 -0.19134171307086945
v -0.19134171307086945 1 -0.4619397521018982
v 0.19134171307086945 1 -0.4619397521018982
v 0.4619397521018982 1 -0.19134171307086945
v 0.4619397521018982 1 0.19134171307086945
v 0 0 0
v -0.19134171307086945 0 0.4619397521018982
v -0.4619397521018982 0 0.19134171307086945
v 0.19134171307086945 0 0.4619397521018982
v -0.4619397521018982 0 -0.19134171307086945
v -0.19134171307086945 0 -0.4619397521018982
v 0.19134171307086945 0 -0.4619397521018982
v 0.4619397521018982 0 -0.19134171307086945
v 0.4619397521018982 0 0.19134171307086945
vt 0 0
vt 1 1
vt 0 1
vt 0 0
vt 1 0
vt 1 1
vt 0 0
vt 1 1
vt 0 1
vt 0 0
vt 1 0
vt 1 1
vt 0 0
vt 1 1
vt 0 1
vt 0 0
vt 1 0
vt 1 1
vt 0 0
vt 1 1
vt 0 1
vt 0 0
vt 1 0
vt 1 1
vt 0 0
vt 1 1
vt 0 1
vt 0 0
vt 1 0
vt 1 1
vt 0 0
vt 1 1
vt 0 1
vt 0 0
vt 1 0
vt 1 1
vt 0 0
vt 1 1
vt 0 1
vt 0 0
vt 1 0
vt 1 1
vt 0 0
vt 1 1
vt 0 1
vt 0 0
vt 1 0
vt 1 1
vt 0.5 0.5
vt 0.6913416981697083 0.9619397521018982
vt 0.30865827202796936 0.9619397521018982
vt 0.5 0.5
vt 0.9619397521018982 0.6913416981697083
vt 0.6913416981697083 0.9619397521018982
vt 0.5 0.5
vt 0.9619397521018982 0.30865827202796936
vt 0.9619397521018982 0.6913416981697083
vt 0.5 0.5
vt 0.6913416981697083 0.03806023299694061
vt 0.9619397521018982 0.30865827202796936
vt 0.5 0.5
vt 0.30865827202796936 0.03806023299694061
vt 0.6913416981697083 0.03806023299694061
vt 0.5 0.5
vt 0.03806023299694061 0.30865827202796936
vt 0.30865827202796936 0.03806023299694061
vt 0.5 0.5
vt 0.03806023299694061 0.6913416981697083
vt 0.03806023299694061 0.30865827202796936
vt 0.5 0.5
vt 0.30865827202796936 0.9619397521018982
vt 0.03806023299694061 0.6913416981697083
vt 0.5 0.5
vt 0.30865827202796936 0.9619397521018982
vt 0.03806023299694061 0.6913416981697083
vt 0.5 0.5
vt 0.6913416981697083 0.9619397521018982
vt 0.30865827202796936 0.9619397521018982
vt 0.5 0.5
vt 0.03806023299694061 0.30865827202796936
vt 0.30865827202796936 0.03806023299694061
vt 0.5 0.5
vt 0.03806023299694061 0.6913416981697083
vt 0.03806023299694061 0.30865827202796936
vt 0.5 0.5
vt 0.6913416981697083 0.03806023299694061
vt 0.9619397521018982 0.30865827202796936
vt 0.5 0.5
vt 0.30865827202796936 0.03806023299694061
vt 0.6913416981697083 0.03806023299694061
vt 0.5 0.5
vt 0.9619397521018982 0.6913416981697083
vt 0.6913416981697083 0.9619397521018982
vt 0.5 0.5
vt 0.9619397521018982 0.30865827202796936
vt 0.9619397521018982 0.6913416981697083
vn 0 0 1
vn 0 0 1
vn 0 0 1
vn 0 0 1
vn 0 0 1
vn 0 0 1
vn 0.7071067811865475 0 0.7071067811865475
vn 0.7071067811865475 0 0.7071067811865475
vn 0.7071067811865475 0 0.7071067811865475
vn 0.7071067811865475 0 0.7071067811865475
vn 0.7071067811865475 0 0.7071067811865475
vn 0.7071067811865475 0 0.7071067811865475
vn 1 0 0
vn 1 0 0
vn 1 0 0
vn 1 0 0
vn 1 0 0
vn 1 0 0
vn 0.7071067811865475 0 -0.7071067811865475
vn 0.7071067811865475 0 -0.7071067811865475
vn 0.7071067811865475 0 -0.7071067811865475
vn 0.7071067811865475 0 -0.7071067811865475
vn 0.7071067811865475 0 -0.7071067811865475
vn 0.7071067811865475 0 -0.7071067811865475
vn 0 0 -1
vn 0 0 -1
vn 0 0 -1
vn 0 0 -1
vn 0 0 -1
vn 0 0 -1
vn -0.7071067811865475 0 -0.7071067811865475
vn -0.7071067811865475 0 -0.7071067811865475
vn -0.7071067811865475 0 -0.7071067811865475
vn -0.7071067811865475 0 -0.7071067811865475
vn -0.7071067811865475 0 -0.7071067811865475
vn -0.7071067811865475 0 -0.7071067811865475
vn -1 0 0
vn -1 0 0
vn -1 0 0
vn -1 0 0
vn -1 0 0
vn -1 0 0
vn -0.7071067811865475 0 0.7071067811865475
vn -0.7071067811865475 0 0.7071067811865475
vn -0.7071067811865475 0 0.7071067811865475
vn -0.7071067811865475 0 0.7071067811865475
vn -0.7071067811865475 0 0.7071067811865475
vn -0.7071067811865475 0 0.7071067811865475
vn 0 1 0
vn 0 1 0
vn 0 1 0
vn 0 1 0
vn 0 1 0
vn 0 1 0
vn 0 1 0
vn 0 1 0
vn 0 1 0
vn 0 1 0
vn 0 1 0
vn 0 1 0
vn 0 1 0
vn 0 1 0
vn 0 1 0
vn 0 1 0
vn 0 1 0
vn 0 1 0
vn 0 1 0
vn 0 1 0
vn 0 1 0
vn 0 1 0
vn 0 1 0
vn 0 1 0
vn 0 -1 0
vn 0 -1 0
vn 0 -1 0
vn 0 -1 0
vn 0 -1 0
vn 0 -1 0
vn 0 -1 0
vn 0 -1 0
vn 0 -1 0
vn 0 -1 0
vn 0 -1 0
vn 0 -1 0
vn 0 -1 0
vn 0 -1 0
vn 0 -1 0
vn 0 -1 0
vn 0 -1 0
vn 0 -1 0
vn 0 -1 0
vn 0 -1 0
vn 0 -1 0
vn 0 -1 0
vn 0 -1 0
vn 0 -1 0
g Scene
usemtl material1
f 1/1/1 2/2/2 3/3/3
f 1/4/4 4/5/5 2/6/6
f 5/7/7 6/8/8 7/9/9
f 5/10/10 8/11/11 6/12/12
f 9/13/13 10/14/14 11/15/15
f 9/16/16 12/17/17 10/18/18
f 13/19/19 14/20/20 15/21/21
f 13/22/22 16/23/23 14/24/24
f 17/25/25 18/26/26 19/27/27
f 17/28/28 20/29/29 18/30/30
f 21/31/31 22/32/32 23/33/33
f 21/34/34 24/35/35 22/36/36
f 25/37/37 26/38/38 27/39/39
f 25/40/40 28/41/41 26/42/42
f 29/43/43 30/44/44 31/45/45
f 29/46/46 32/47/47 30/48/48
f 33/49/49 34/50/50 35/51/51
f 33/52/52 36/53/53 34/54/54
f 33/55/55 37/56/56 36/57/57
f 33/58/58 38/59/59 37/60/60
f 33/61/61 39/62/62 38/63/63
f 33/64/64 40/65/65 39/66/66
f 33/67/67 41/68/68 40/69/69
f 33/70/70 35/71/71 41/72/72
f 42/73/73 43/74/74 44/75/75
f 42/76/76 45/77/77 43/78/78
f 42/79/79 46/80/80 47/81/81
f 42/82/82 44/83/83 46/84/84
f 42/85/85 48/86/86 49/87/87
f 42/88/88 47/89/89 48/90/90
f 42/91/91 50/92/92 45/93/93
f 42/94/94 49/95/95 50/96/96
