o Default
v 0 -0.5 0
v 0.4330126941204071 -3.0616171314629196e-17 0.25
v -0.4330126941204071 -3.0616171314629196e-17 0.25
v 0 -0.5 0
v 3.8859062634344355e-9 -3.0616171314629196e-17 -0.5
v 0.4330126941204071 -3.0616171314629196e-17 0.25
v 0 -0.5 0
v -0.4330126941204071 -3.0616171314629196e-17 0.25
v 3.8859062634344355e-9 -3.0616171314629196e-17 -0.5
v -0.4330126941204071 -3.0616171314629196e-17 0.25
v 0.4330126941204071 -3.0616171314629196e-17 0.25
v 5.302876236065149e-17 0.5 3.0616171314629196e-17
v 0.4330126941204071 -3.0616171314629196e-17 0.25
v 3.8859062634344355e-9 -3.0616171314629196e-17 -0.5
v 5.302876236065149e-17 0.5 3.0616171314629196e-17
v 3.8859062634344355e-9 -3.0616171314629196e-17 -0.5
v -0.4330126941204071 -3.0616171314629196e-17 0.25
v 5.302876236065149e-17 0.5 3.0616171314629196e-17
vt 0.5 0
vt 0.9330127239227295 0.5
vt 0.0669872984290123 0.5
vt 0.5 0
vt 0.9330127239227295 0.5
vt 0.0669872984290123 0.5
vt 0.5 0
vt 0.9330127239227295 0.5
vt 0.0669872984290123 0.5
vt 0.0669872984290123 0.5
vt 0.9330127239227295 0.5
vt 0.5 1
vt 0.0669872984290123 0.5
vt 0.9330127239227295 0.5
vt 0.5 1
vt 0.0669872984290123 0.5
vt 0.9330127239227295 0.5
vt 0.5 1
vn 0 -0.447213595499958 0.8944271909999157
vn 0 -0.447213595499958 0.8944271909999157
vn 0 -0.447213595499958 0.8944271909999157
vn 0.7745966754976714 -0.44721359309195 -0.4472135870719298
vn 0.7745966754976714 -0.44721359309195 -0.4472135870719298
vn 0.7745966754976714 -0.44721359309195 -0.4472135870719298
vn -0.7745966741074075 -0.44721358827593405 -0.44721359429595414
vn -0.7745966741074075 -0.44721358827593405 -0.44721359429595414
vn -0.7745966741074075 -0.44721358827593405 -0.44721359429595414
vn 0 0.44721359549995787 0.894427190999916
vn 0 0.44721359549995787 0.894427190999916
vn 0 0.44721359549995787 0.894427190999916
vn 0.7745966754976715 0.44721359309194997 -0.4472135870719299
vn 0.7745966754976715 0.44721359309194997 -0.4472135870719299
vn 0.7745966754976715 0.44721359309194997 -0.4472135870719299
vn -0.7745966741074075 0.44721358827593405 -0.4472135942959541
vn -0.7745966741074075 0.44721358827593405 -0.4472135942959541
vn -0.7745966741074075 0.44721358827593405 -0.4472135942959541
g Scene
usemtl material1
f 1/1/1 2/2/2 3/3/3
f 4/4/4 5/5/5 6/6/6
f 7/7/7 8/8/8 9/9/9
f 10/10/10 11/11/11 12/12/12
f 13/13/13 14/14/14 15/15/15
f 16/16/16 17/17/17 18/18/18
