mtllib model.mtl
o Default
v 0 -0.0000666702471789904 0.2500250041484833
v 0 -0.00004167024599155411 0.000025001249014167115
v 0.25 -0.00004167024599155411 0.000025001249014167115
v 0.25 -0.0000666702471789904 0.2500250041484833
vt 0 0
vt 1 1
vt 0 1
vt 0 0
vt 1 0
vt 1 1
vn 0 0.9999999949999996 0.00010000000308995739
vn 0 0.9999999949999996 0.00010000000308995739
vn 0 0.9999999949999996 0.00010000000308995739
vn 0 0.9999999949999996 0.00010000000308995739
vn 0 0.9999999949999996 0.00010000000308995739
vn 0 0.9999999949999996 0.00010000000308995739
g Scene
usemtl material1
f 1/1/1 3/2/2 2/3/3
f 1/4/4 4/5/5 3/6/6
