o Default
v -0.5 0 0.5
v 0.5 1 0.5
v -0.5 1 0.5
v 0.5 0 0.5
v 0.5 0 0.5
v 0.5 0 -0.5
v 0.5 1 0.5
v -0.5 0 -0.5
v -0.5 0 0.5
v -0.5 1 0.5
v -0.5 0 -0.5
v 0.5 0 0.5
v -0.5 0 0.5
v 0.5 0 -0.5
v 0.5 0 -0.5
v -0.5 1 0.5
v 0.5 1 0.5
v -0.5 0 -0.5
vt 0 0
vt 1 1
vt 0 1
vt 0 0
vt 1 0
vt 1 1
vt 0 0
vt 1 0
vt 0 1
vt 0 0
vt 1 0
vt 1 1
vt 0 0
vt 1 1
vt 0 1
vt 0 0
vt 1 0
vt 1 1
vt 0 0
vt 1 1
vt 0 1
vt 0 0
vt 1 0
vt 1 1
vn 0 0 1
vn 0 0 1
vn 0 0 1
vn 0 0 1
vn 0 0 1
vn 0 0 1
vn 1 0 0
vn 1 0 0
vn 1 0 0
vn -1 0 0
vn -1 0 0
vn -1 0 0
vn 0 -1 0
vn 0 -1 0
vn 0 -1 0
vn 0 -1 0
vn 0 -1 0
vn 0 -1 0
vn 0 0.7071067811865475 -0.7071067811865475
vn 0 0.7071067811865475 -0.7071067811865475
vn 0 0.7071067811865475 -0.7071067811865475
vn 0 0.7071067811865475 -0.7071067811865475
vn 0 0.7071067811865475 -0.7071067811865475
vn 0 0.7071067811865475 -0.7071067811865475
g Scene
usemtl material1
f 1/1/1 2/2/2 3/3/3
f 1/4/4 4/5/5 2/6/6
f 5/7/7 6/8/8 7/9/9
f 8/10/10 9/11/11 10/12/12
f 11/13/13 12/14/14 13/15/15
f 11/16/16 14/17/17 12/18/18
f 15/19/19 16/20/20 17/21/21
f 15/22/22 18/23/23 16/24/24
